<svg width="191" height="32" viewBox="0 0 191 32" fill="none" xmlns="http://www.w3.org/2000/svg">
<path d="M28.7499 15.8125C26.9027 15.8125 25.1166 14.9877 23.7186 13.4909C22.3593 12.031 21.5292 10.0841 21.3827 8.01047C21.2264 5.79852 21.9011 3.76445 23.282 2.28203C24.6629 0.79961 26.5936 0 28.7499 0C30.8909 0 32.827 0.813984 34.2034 2.29281C35.5933 3.78602 36.2698 5.81648 36.1135 8.00957C35.9635 10.0859 35.1342 12.0319 33.7776 13.49C32.3832 14.9877 30.598 15.8125 28.7499 15.8125ZM40.594 31.625H16.9067C16.5259 31.627 16.1496 31.5417 15.807 31.3755C15.4643 31.2093 15.1643 30.9667 14.9301 30.6664C14.6817 30.3408 14.5102 29.9632 14.4283 29.562C14.3465 29.1607 14.3565 28.7462 14.4576 28.3493C15.214 25.3117 17.0882 22.7925 19.8769 21.0648C22.3521 19.532 25.5029 18.6875 28.7499 18.6875C32.0606 18.6875 35.1288 19.4961 37.6184 21.0279C40.4134 22.7466 42.2902 25.2802 43.0431 28.3547C43.143 28.7518 43.1519 29.1664 43.0691 29.5674C42.9863 29.9685 42.8141 30.3457 42.5652 30.6709C42.3312 30.9698 42.0319 31.2112 41.6903 31.3766C41.3486 31.542 40.9736 31.6269 40.594 31.625ZM11.7694 16.1719C8.60783 16.1719 5.82806 13.2322 5.57021 9.61957C5.44263 7.76879 6.01943 6.05727 7.1874 4.80215C8.34279 3.55961 9.97255 2.875 11.7694 2.875C13.5663 2.875 15.1835 3.5632 16.3452 4.81293C17.5221 6.07793 18.0971 7.78586 17.9624 9.62137C17.7045 13.2331 14.9256 16.1719 11.7694 16.1719ZM17.6686 18.9975C16.0882 18.2248 14.0371 17.8385 11.7703 17.8385C9.12353 17.8385 6.5531 18.5285 4.53162 19.7809C2.2397 21.2031 0.697984 23.274 0.0753666 25.7744C-0.0157484 26.134 -0.0243662 26.5096 0.0501576 26.873C0.124682 27.2365 0.280418 27.5784 0.505718 27.8731C0.719499 28.1476 0.993376 28.3693 1.30629 28.5213C1.6192 28.6734 1.9628 28.7516 2.31068 28.75H12.2833C12.4517 28.75 12.6146 28.6909 12.7438 28.583C12.8731 28.4751 12.9603 28.3253 12.9904 28.1597C13.0003 28.1031 13.0129 28.0465 13.0272 27.9908C13.7891 24.9307 15.5743 22.345 18.2121 20.4601C18.3091 20.3902 18.3872 20.2971 18.4392 20.1894C18.4911 20.0817 18.5154 19.9627 18.5098 19.8433C18.5042 19.7238 18.4688 19.6076 18.407 19.5053C18.3451 19.4029 18.2587 19.3176 18.1555 19.2571C18.0145 19.1745 17.8527 19.0873 17.6686 18.9975Z" fill="#8F00FF"/>
<path d="M62.0666 6.63068L66.1327 19.9474H66.2836L70.3497 6.63068H75.268L69.1334 24.8125H63.2829L57.1483 6.63068H62.0666ZM86.0235 18.9265V11.1761H90.3559V24.8125H86.2188V22.2734H86.0768C85.7749 23.108 85.26 23.7708 84.532 24.2621C83.81 24.7474 82.937 24.9901 81.9131 24.9901C80.9838 24.9901 80.1671 24.777 79.4628 24.3509C78.7585 23.9247 78.211 23.3299 77.8204 22.5664C77.4297 21.797 77.2315 20.8974 77.2256 19.8675V11.1761H81.5668V19.0153C81.5727 19.7551 81.768 20.3381 82.1528 20.7642C82.5375 21.1903 83.0613 21.4034 83.7241 21.4034C84.1562 21.4034 84.5439 21.3087 84.8871 21.1193C85.2363 20.924 85.5115 20.6429 85.7128 20.2759C85.9199 19.9031 86.0235 19.4532 86.0235 18.9265ZM97.4604 6.63068V24.8125H93.1191V6.63068H97.4604ZM106.589 25.07C105.151 25.07 103.917 24.774 102.887 24.1822C101.863 23.5903 101.076 22.7676 100.525 21.7141C99.975 20.6547 99.6998 19.4296 99.6998 18.0387C99.6998 16.6419 99.975 15.4168 100.525 14.3633C101.082 13.3039 101.872 12.4782 102.896 11.8864C103.926 11.2945 105.154 10.9986 106.58 10.9986C107.841 10.9986 108.939 11.2264 109.874 11.6822C110.815 12.1379 111.549 12.783 112.076 13.6175C112.608 14.4461 112.889 15.4197 112.919 16.5384H108.862C108.779 15.84 108.542 15.2925 108.152 14.896C107.767 14.4994 107.264 14.3011 106.642 14.3011C106.139 14.3011 105.698 14.4432 105.319 14.7273C104.941 15.0054 104.645 15.4197 104.432 15.9702C104.225 16.5147 104.121 17.1894 104.121 17.9943C104.121 18.7992 104.225 19.4799 104.432 20.0362C104.645 20.5866 104.941 21.0039 105.319 21.288C105.698 21.5662 106.139 21.7053 106.642 21.7053C107.045 21.7053 107.4 21.6194 107.708 21.4478C108.021 21.2762 108.279 21.0246 108.48 20.6932C108.681 20.3558 108.808 19.9474 108.862 19.468H112.919C112.877 20.5926 112.596 21.575 112.076 22.4155C111.561 23.2559 110.836 23.9099 109.9 24.3775C108.971 24.8391 107.867 25.07 106.589 25.07ZM118.985 25.0433C118.115 25.0433 117.342 24.8983 116.668 24.6083C115.999 24.3124 115.469 23.8685 115.078 23.2766C114.694 22.6789 114.501 21.9302 114.501 21.0305C114.501 20.273 114.635 19.6338 114.901 19.1129C115.167 18.5921 115.534 18.1689 116.002 17.8434C116.469 17.5179 117.008 17.2723 117.618 17.1065C118.227 16.9349 118.878 16.8195 119.571 16.7603C120.346 16.6893 120.97 16.6153 121.444 16.5384C121.917 16.4555 122.261 16.3401 122.474 16.1921C122.693 16.0382 122.802 15.8222 122.802 15.544V15.4996C122.802 15.0439 122.645 14.6918 122.332 14.4432C122.018 14.1946 121.595 14.0703 121.062 14.0703C120.488 14.0703 120.026 14.1946 119.677 14.4432C119.328 14.6918 119.106 15.035 119.011 15.473L115.007 15.331C115.126 14.5024 115.431 13.7625 115.922 13.1115C116.419 12.4545 117.1 11.9396 117.964 11.5668C118.834 11.188 119.878 10.9986 121.098 10.9986C121.968 10.9986 122.77 11.1022 123.504 11.3093C124.237 11.5105 124.877 11.8065 125.421 12.1971C125.966 12.5818 126.386 13.0553 126.682 13.6175C126.984 14.1798 127.135 14.822 127.135 15.544V24.8125H123.051V22.9126H122.944C122.702 23.3743 122.391 23.7649 122.012 24.0845C121.639 24.4041 121.198 24.6438 120.689 24.8036C120.186 24.9634 119.618 25.0433 118.985 25.0433ZM120.325 22.2024C120.793 22.2024 121.213 22.1077 121.586 21.9183C121.965 21.7289 122.267 21.4685 122.491 21.1371C122.716 20.7997 122.829 20.4091 122.829 19.9652V18.669C122.705 18.7341 122.554 18.7933 122.376 18.8466C122.204 18.8999 122.015 18.9502 121.808 18.9975C121.601 19.0449 121.388 19.0863 121.169 19.1218C120.95 19.1573 120.74 19.1899 120.538 19.2195C120.13 19.2846 119.781 19.3852 119.491 19.5213C119.207 19.6574 118.988 19.835 118.834 20.054C118.686 20.267 118.612 20.5215 118.612 20.8175C118.612 21.2673 118.772 21.6106 119.091 21.8473C119.417 22.084 119.828 22.2024 120.325 22.2024ZM134.13 17.0355V24.8125H129.789V11.1761H133.917V13.6797H134.068C134.37 12.8452 134.885 12.1912 135.613 11.7177C136.341 11.2383 137.208 10.9986 138.214 10.9986C139.173 10.9986 140.004 11.2146 140.709 11.6467C141.419 12.0728 141.969 12.6706 142.36 13.44C142.757 14.2035 142.952 15.0972 142.946 16.1211V24.8125H138.605V16.9734C138.611 16.2158 138.418 15.6239 138.028 15.1978C137.643 14.7717 137.107 14.5586 136.421 14.5586C135.965 14.5586 135.563 14.6592 135.213 14.8604C134.87 15.0558 134.604 15.3369 134.414 15.7038C134.231 16.0708 134.136 16.5147 134.13 17.0355ZM157.885 25.0611C156.5 25.0611 155.272 24.8243 154.201 24.3509C153.136 23.8714 152.295 23.2115 151.68 22.3711C151.064 21.5307 150.75 20.563 150.739 19.468H155.16C155.177 19.8646 155.305 20.2167 155.541 20.5245C155.778 20.8263 156.101 21.0631 156.509 21.2347C156.917 21.4064 157.382 21.4922 157.903 21.4922C158.424 21.4922 158.882 21.4004 159.279 21.217C159.681 21.0276 159.995 20.7701 160.22 20.4446C160.445 20.1132 160.554 19.7344 160.549 19.3082C160.554 18.8821 160.433 18.5033 160.185 18.1719C159.936 17.8404 159.584 17.583 159.128 17.3995C158.678 17.216 158.146 17.1243 157.53 17.1243H155.763V13.9993H157.53C158.069 13.9993 158.542 13.9105 158.951 13.733C159.365 13.5554 159.687 13.3068 159.918 12.9872C160.149 12.6617 160.261 12.2888 160.256 11.8686C160.261 11.4602 160.164 11.1022 159.963 10.7944C159.767 10.4807 159.492 10.238 159.137 10.0664C158.788 9.89477 158.382 9.80895 157.921 9.80895C157.435 9.80895 156.994 9.89477 156.598 10.0664C156.207 10.238 155.897 10.4807 155.666 10.7944C155.435 11.1081 155.314 11.4721 155.302 11.8864H151.103C151.114 10.8033 151.416 9.85038 152.008 9.0277C152.6 8.1991 153.405 7.55102 154.423 7.08345C155.447 6.61588 156.613 6.3821 157.921 6.3821C159.223 6.3821 160.368 6.60997 161.356 7.0657C162.345 7.52142 163.114 8.14287 163.665 8.93004C164.215 9.71129 164.49 10.5961 164.49 11.5845C164.496 12.6084 164.162 13.4518 163.487 14.1147C162.818 14.7776 161.957 15.186 160.904 15.3398V15.4819C162.312 15.6476 163.375 16.1033 164.091 16.8491C164.813 17.5948 165.171 18.527 165.165 19.6456C165.165 20.6991 164.854 21.6342 164.233 22.451C163.617 23.2618 162.759 23.901 161.658 24.3686C160.563 24.8303 159.306 25.0611 157.885 25.0611ZM169.608 25.07C168.969 25.07 168.422 24.8451 167.966 24.3952C167.516 23.9454 167.294 23.4009 167.3 22.7617C167.294 22.1344 167.516 21.5987 167.966 21.1548C168.422 20.705 168.969 20.4801 169.608 20.4801C170.212 20.4801 170.745 20.705 171.206 21.1548C171.674 21.5987 171.911 22.1344 171.917 22.7617C171.911 23.1879 171.798 23.5755 171.579 23.9247C171.366 24.2739 171.085 24.5521 170.736 24.7592C170.393 24.9664 170.017 25.07 169.608 25.07ZM181.487 25.2564C179.901 25.2564 178.534 24.8806 177.385 24.1289C176.237 23.3713 175.352 22.2853 174.731 20.8707C174.109 19.4503 173.802 17.7428 173.808 15.7482C173.814 13.7537 174.124 12.061 174.74 10.6701C175.361 9.27332 176.243 8.21094 177.385 7.48295C178.534 6.74905 179.901 6.3821 181.487 6.3821C183.073 6.3821 184.44 6.74905 185.588 7.48295C186.743 8.21094 187.63 9.27332 188.252 10.6701C188.873 12.0669 189.181 13.7596 189.175 15.7482C189.175 17.7487 188.864 19.4592 188.243 20.8796C187.622 22.3001 186.737 23.3861 185.588 24.1378C184.446 24.8835 183.079 25.2564 181.487 25.2564ZM181.487 21.6609C182.434 21.6609 183.2 21.1785 183.786 20.2138C184.372 19.2431 184.662 17.7546 184.656 15.7482C184.656 14.4343 184.523 13.3512 184.257 12.4989C183.99 11.6407 183.621 11.0015 183.147 10.5813C182.674 10.1611 182.12 9.95099 181.487 9.95099C180.546 9.95099 179.785 10.4274 179.205 11.3803C178.625 12.3273 178.332 13.7833 178.326 15.7482C178.32 17.0799 178.448 18.1837 178.708 19.0597C178.974 19.9356 179.347 20.5896 179.827 21.0217C180.306 21.4478 180.86 21.6609 181.487 21.6609Z" fill="white"/>
</svg>
